<svg width="307" height="119" viewBox="0 0 307 119" fill="none" xmlns="http://www.w3.org/2000/svg">
<g clip-path="url(#clip0_3_543)">
<g filter="url(#filter0_d_3_543)">
<path d="M188.619 132.314L204.691 132.314C205.498 132.314 206.152 131.66 206.152 130.853L206.152 38.6773C206.152 37.87 205.498 37.2154 204.691 37.2154L188.619 37.2154C187.812 37.2154 187.158 37.87 187.158 38.6773L187.158 130.853C187.158 131.66 187.812 132.314 188.619 132.314Z" fill="#FFD05E"/>
</g>
<g filter="url(#filter1_d_3_543)">
<path d="M196.578 21.1734C196.833 21.1734 197.077 21.2747 197.257 21.4551C197.438 21.6354 197.539 21.8801 197.539 22.1352L197.539 37.1772C197.539 37.4322 197.438 37.6768 197.257 37.8571C197.077 38.0375 196.833 38.1389 196.578 38.1389C196.33 38.129 196.095 38.0233 195.923 37.844C195.751 37.6647 195.655 37.4257 195.655 37.1772L195.655 22.1352C195.655 21.8866 195.751 21.6476 195.923 21.4683C196.095 21.289 196.33 21.1834 196.578 21.1734Z" fill="#FFD05E"/>
</g>
<g filter="url(#filter2_d_3_543)">
<path d="M162.164 180.172L178.236 180.172C179.043 180.172 179.697 179.517 179.697 178.71L179.697 112.348C179.697 111.541 179.043 110.887 178.236 110.887L162.164 110.887C161.357 110.887 160.702 111.541 160.702 112.348L160.702 178.71C160.702 179.517 161.357 180.172 162.164 180.172Z" fill="#FFD05E"/>
</g>
<g filter="url(#filter3_d_3_543)">
<path d="M170.2 94.8831C170.455 94.8831 170.699 94.9844 170.88 95.1648C171.06 95.3452 171.161 95.5898 171.161 95.8449L171.161 110.887C171.161 111.142 171.06 111.387 170.88 111.567C170.699 111.747 170.455 111.849 170.2 111.849C169.945 111.849 169.7 111.747 169.52 111.567C169.34 111.387 169.239 111.142 169.239 110.887L169.239 95.8449C169.239 95.5898 169.34 95.3452 169.52 95.1648C169.7 94.9844 169.945 94.8831 170.2 94.8831Z" fill="#FFD05E"/>
</g>
<g filter="url(#filter4_d_3_543)">
<path d="M117.292 118.196C117.54 118.206 117.775 118.312 117.947 118.491C118.119 118.67 118.215 118.909 118.215 119.158L118.215 126.66C118.215 126.908 118.119 127.147 117.947 127.326C117.775 127.506 117.54 127.611 117.292 127.621C117.037 127.621 116.793 127.52 116.612 127.34C116.432 127.159 116.331 126.915 116.331 126.66L116.331 119.158C116.331 118.903 116.432 118.658 116.612 118.478C116.793 118.297 117.037 118.196 117.292 118.196Z" fill="#FFD05E"/>
</g>
<g filter="url(#filter5_d_3_543)">
<path d="M320.928 8.97827L337.001 8.97827C337.808 8.97827 338.462 8.32375 338.462 7.51637L338.462 -37.1094C338.462 -37.9167 337.808 -38.5712 337.001 -38.5712L320.928 -38.5712C320.121 -38.5712 319.467 -37.9167 319.467 -37.1094L319.467 7.51638C319.467 8.32375 320.121 8.97827 320.928 8.97827Z" fill="#FFD05E"/>
</g>
<g filter="url(#filter6_d_3_543)">
<path d="M82.7632 126.352L98.8357 126.352C99.6427 126.352 100.297 125.697 100.297 124.89L100.297 93.7288C100.297 92.9215 99.6427 92.267 98.8357 92.267L82.7632 92.267C81.9563 92.267 81.3021 92.9215 81.3021 93.7288L81.3021 124.89C81.3021 125.697 81.9563 126.352 82.7632 126.352Z" fill="#FFD05E"/>
</g>
<g filter="url(#filter7_d_3_543)">
<path d="M90.7995 73.1084C91.0479 73.1082 91.2867 73.2042 91.4659 73.3763C91.6451 73.5485 91.7508 73.7833 91.7607 74.0317L91.7607 92.2668C91.7607 92.5218 91.6595 92.7664 91.4792 92.9467C91.2989 93.1271 91.0544 93.2285 90.7995 93.2285C90.5512 93.2186 90.3165 93.1128 90.1445 92.9335C89.9724 92.7542 89.8764 92.5153 89.8766 92.2668L89.8766 74.0317C89.8766 73.7868 89.9739 73.5519 90.1469 73.3788C90.32 73.2056 90.5547 73.1084 90.7995 73.1084Z" fill="#FFD05E"/>
</g>
<g filter="url(#filter8_d_3_543)">
<path d="M215.073 32.8301L231.145 32.8301C231.952 32.8301 232.606 32.1756 232.606 31.3682L232.606 -31.3387C232.606 -32.1461 231.952 -32.8006 231.145 -32.8006L215.073 -32.8006C214.266 -32.8006 213.612 -32.1461 213.612 -31.3387L213.612 31.3682C213.612 32.1756 214.266 32.8301 215.073 32.8301Z" fill="#FFD05E"/>
</g>
<g filter="url(#filter9_d_3_543)">
<path d="M223.147 31.8681C223.269 31.8681 223.389 31.892 223.501 31.9384C223.613 31.9848 223.714 32.0527 223.8 32.1384C223.886 32.2242 223.954 32.326 224 32.438C224.046 32.5501 224.07 32.6701 224.07 32.7913L224.07 38.7543C224.071 39.0029 223.975 39.2417 223.802 39.421C223.63 39.6003 223.396 39.7061 223.147 39.7161C222.893 39.7161 222.648 39.6147 222.468 39.4343C222.287 39.2539 222.186 39.0094 222.186 38.7543L222.186 32.9452C222.17 32.8096 222.183 32.6719 222.223 32.5416C222.264 32.4112 222.333 32.2912 222.423 32.1893C222.514 32.0874 222.626 32.006 222.751 31.9506C222.876 31.8952 223.011 31.8671 223.147 31.8681Z" fill="#FFD05E"/>
</g>
<g filter="url(#filter10_d_3_543)">
<path d="M56.3081 94.96L72.3806 94.96C73.1876 94.96 73.8418 94.3055 73.8418 93.4981L73.8418 54.7968C73.8418 53.9894 73.1876 53.3349 72.3806 53.3349L56.3081 53.3349C55.5012 53.3349 54.847 53.9894 54.847 54.7968L54.847 93.4981C54.847 94.3055 55.5012 94.96 56.3081 94.96Z" fill="#FFD05E"/>
</g>
<g filter="url(#filter11_d_3_543)">
<path d="M64.3454 94.0367C64.5938 94.0365 64.8327 94.1325 65.0119 94.3046C65.1911 94.4767 65.2967 94.7116 65.3066 94.9599L65.3066 117.08C65.3066 117.336 65.2053 117.58 65.0251 117.761C64.8448 117.941 64.6003 118.042 64.3454 118.042C64.0971 118.032 63.8624 117.927 63.6904 117.747C63.5183 117.568 63.4223 117.329 63.4225 117.08L63.4225 94.9599C63.4225 94.7151 63.5198 94.4802 63.6928 94.3071C63.8659 94.1339 64.1006 94.0367 64.3454 94.0367Z" fill="#FFD05E"/>
</g>
<g filter="url(#filter12_d_3_543)">
<path d="M64.3444 41.7166C64.5993 41.7166 64.8438 41.8179 65.0241 41.9982C65.2044 42.1786 65.3057 42.4233 65.3057 42.6783L65.3057 53.3731C65.2957 53.6215 65.1901 53.8563 65.0109 54.0285C64.8317 54.2006 64.5928 54.2966 64.3444 54.2964C64.0996 54.2964 63.8649 54.1992 63.6918 54.026C63.5188 53.8529 63.4215 53.618 63.4215 53.3731L63.4215 42.6783C63.4213 42.4298 63.5173 42.1908 63.6894 42.0115C63.8614 41.8322 64.0962 41.7265 64.3444 41.7166Z" fill="#FFD05E"/>
</g>
<g filter="url(#filter13_d_3_543)">
<path d="M29.854 56.6819L45.9265 56.6819C46.7335 56.6819 47.3877 56.0274 47.3877 55.22L47.3877 24.7129C47.3877 23.9055 46.7335 23.251 45.9265 23.251L29.854 23.251C29.047 23.251 28.3929 23.9055 28.3929 24.7129L28.3929 55.22C28.3929 56.0274 29.047 56.6819 29.854 56.6819Z" fill="#FFD05E"/>
</g>
<g filter="url(#filter14_d_3_543)">
<path d="M37.8903 55.72C38.1452 55.72 38.3898 55.8213 38.5701 56.0017C38.7503 56.1821 38.8516 56.4267 38.8516 56.6818L38.8516 78.7638C38.8516 79.0189 38.7503 79.2635 38.5701 79.4438C38.3898 79.6242 38.1452 79.7256 37.8903 79.7256C37.6353 79.7256 37.3908 79.6242 37.2106 79.4438C37.0303 79.2635 36.929 79.0189 36.929 78.7638L36.929 56.6818C36.929 56.4267 37.0303 56.1821 37.2106 56.0017C37.3908 55.8213 37.6353 55.72 37.8903 55.72Z" fill="#FFD05E"/>
</g>
<g filter="url(#filter15_d_3_543)">
<path d="M37.8903 -8.17961C38.1452 -8.17961 38.3898 -8.07833 38.57 -7.89797C38.7503 -7.7176 38.8516 -7.47293 38.8516 -7.21785L38.8516 23.2123C38.8516 23.4674 38.7503 23.7121 38.57 23.8924C38.3898 24.0728 38.1452 24.1741 37.8903 24.1741C37.6353 24.1741 37.3908 24.0728 37.2106 23.8924C37.0303 23.7121 36.929 23.4674 36.929 23.2123L36.929 -7.21785C36.929 -7.47293 37.0303 -7.7176 37.2106 -7.89797C37.3908 -8.07833 37.6353 -8.17961 37.8903 -8.17961Z" fill="#FFD05E"/>
</g>
</g>
<defs>
<filter id="filter0_d_3_543" x="167.158" y="32.2155" width="42.9948" height="119.099" filterUnits="userSpaceOnUse" color-interpolation-filters="sRGB">
<feFlood flood-opacity="0" result="BackgroundImageFix"/>
<feColorMatrix in="SourceAlpha" type="matrix" values="0 0 0 0 0 0 0 0 0 0 0 0 0 0 0 0 0 0 127 0" result="hardAlpha"/>
<feOffset dx="-8" dy="7"/>
<feGaussianBlur stdDeviation="6"/>
<feComposite in2="hardAlpha" operator="out"/>
<feColorMatrix type="matrix" values="0 0 0 0 0 0 0 0 0 0 0 0 0 0 0 0 0 0 0.06 0"/>
<feBlend mode="normal" in2="BackgroundImageFix" result="effect1_dropShadow_3_543"/>
<feBlend mode="normal" in="SourceGraphic" in2="effect1_dropShadow_3_543" result="shape"/>
</filter>
<filter id="filter1_d_3_543" x="175.655" y="16.1735" width="25.8841" height="40.9655" filterUnits="userSpaceOnUse" color-interpolation-filters="sRGB">
<feFlood flood-opacity="0" result="BackgroundImageFix"/>
<feColorMatrix in="SourceAlpha" type="matrix" values="0 0 0 0 0 0 0 0 0 0 0 0 0 0 0 0 0 0 127 0" result="hardAlpha"/>
<feOffset dx="-8" dy="7"/>
<feGaussianBlur stdDeviation="6"/>
<feComposite in2="hardAlpha" operator="out"/>
<feColorMatrix type="matrix" values="0 0 0 0 0 0 0 0 0 0 0 0 0 0 0 0 0 0 0.06 0"/>
<feBlend mode="normal" in2="BackgroundImageFix" result="effect1_dropShadow_3_543"/>
<feBlend mode="normal" in="SourceGraphic" in2="effect1_dropShadow_3_543" result="shape"/>
</filter>
<filter id="filter2_d_3_543" x="140.702" y="105.887" width="42.9948" height="93.2853" filterUnits="userSpaceOnUse" color-interpolation-filters="sRGB">
<feFlood flood-opacity="0" result="BackgroundImageFix"/>
<feColorMatrix in="SourceAlpha" type="matrix" values="0 0 0 0 0 0 0 0 0 0 0 0 0 0 0 0 0 0 127 0" result="hardAlpha"/>
<feOffset dx="-8" dy="7"/>
<feGaussianBlur stdDeviation="6"/>
<feComposite in2="hardAlpha" operator="out"/>
<feColorMatrix type="matrix" values="0 0 0 0 0 0 0 0 0 0 0 0 0 0 0 0 0 0 0.06 0"/>
<feBlend mode="normal" in2="BackgroundImageFix" result="effect1_dropShadow_3_543"/>
<feBlend mode="normal" in="SourceGraphic" in2="effect1_dropShadow_3_543" result="shape"/>
</filter>
<filter id="filter3_d_3_543" x="149.239" y="89.8831" width="25.9225" height="40.9655" filterUnits="userSpaceOnUse" color-interpolation-filters="sRGB">
<feFlood flood-opacity="0" result="BackgroundImageFix"/>
<feColorMatrix in="SourceAlpha" type="matrix" values="0 0 0 0 0 0 0 0 0 0 0 0 0 0 0 0 0 0 127 0" result="hardAlpha"/>
<feOffset dx="-8" dy="7"/>
<feGaussianBlur stdDeviation="6"/>
<feComposite in2="hardAlpha" operator="out"/>
<feColorMatrix type="matrix" values="0 0 0 0 0 0 0 0 0 0 0 0 0 0 0 0 0 0 0.06 0"/>
<feBlend mode="normal" in2="BackgroundImageFix" result="effect1_dropShadow_3_543"/>
<feBlend mode="normal" in="SourceGraphic" in2="effect1_dropShadow_3_543" result="shape"/>
</filter>
<filter id="filter4_d_3_543" x="96.3307" y="113.196" width="25.8841" height="33.4252" filterUnits="userSpaceOnUse" color-interpolation-filters="sRGB">
<feFlood flood-opacity="0" result="BackgroundImageFix"/>
<feColorMatrix in="SourceAlpha" type="matrix" values="0 0 0 0 0 0 0 0 0 0 0 0 0 0 0 0 0 0 127 0" result="hardAlpha"/>
<feOffset dx="-8" dy="7"/>
<feGaussianBlur stdDeviation="6"/>
<feComposite in2="hardAlpha" operator="out"/>
<feColorMatrix type="matrix" values="0 0 0 0 0 0 0 0 0 0 0 0 0 0 0 0 0 0 0.06 0"/>
<feBlend mode="normal" in2="BackgroundImageFix" result="effect1_dropShadow_3_543"/>
<feBlend mode="normal" in="SourceGraphic" in2="effect1_dropShadow_3_543" result="shape"/>
</filter>
<filter id="filter5_d_3_543" x="299.467" y="-43.5713" width="42.9948" height="71.5496" filterUnits="userSpaceOnUse" color-interpolation-filters="sRGB">
<feFlood flood-opacity="0" result="BackgroundImageFix"/>
<feColorMatrix in="SourceAlpha" type="matrix" values="0 0 0 0 0 0 0 0 0 0 0 0 0 0 0 0 0 0 127 0" result="hardAlpha"/>
<feOffset dx="-8" dy="7"/>
<feGaussianBlur stdDeviation="6"/>
<feComposite in2="hardAlpha" operator="out"/>
<feColorMatrix type="matrix" values="0 0 0 0 0 0 0 0 0 0 0 0 0 0 0 0 0 0 0.06 0"/>
<feBlend mode="normal" in2="BackgroundImageFix" result="effect1_dropShadow_3_543"/>
<feBlend mode="normal" in="SourceGraphic" in2="effect1_dropShadow_3_543" result="shape"/>
</filter>
<filter id="filter6_d_3_543" x="61.3021" y="87.267" width="42.9948" height="58.0848" filterUnits="userSpaceOnUse" color-interpolation-filters="sRGB">
<feFlood flood-opacity="0" result="BackgroundImageFix"/>
<feColorMatrix in="SourceAlpha" type="matrix" values="0 0 0 0 0 0 0 0 0 0 0 0 0 0 0 0 0 0 127 0" result="hardAlpha"/>
<feOffset dx="-8" dy="7"/>
<feGaussianBlur stdDeviation="6"/>
<feComposite in2="hardAlpha" operator="out"/>
<feColorMatrix type="matrix" values="0 0 0 0 0 0 0 0 0 0 0 0 0 0 0 0 0 0 0.06 0"/>
<feBlend mode="normal" in2="BackgroundImageFix" result="effect1_dropShadow_3_543"/>
<feBlend mode="normal" in="SourceGraphic" in2="effect1_dropShadow_3_543" result="shape"/>
</filter>
<filter id="filter7_d_3_543" x="69.8766" y="68.1084" width="25.8841" height="44.1201" filterUnits="userSpaceOnUse" color-interpolation-filters="sRGB">
<feFlood flood-opacity="0" result="BackgroundImageFix"/>
<feColorMatrix in="SourceAlpha" type="matrix" values="0 0 0 0 0 0 0 0 0 0 0 0 0 0 0 0 0 0 127 0" result="hardAlpha"/>
<feOffset dx="-8" dy="7"/>
<feGaussianBlur stdDeviation="6"/>
<feComposite in2="hardAlpha" operator="out"/>
<feColorMatrix type="matrix" values="0 0 0 0 0 0 0 0 0 0 0 0 0 0 0 0 0 0 0.06 0"/>
<feBlend mode="normal" in2="BackgroundImageFix" result="effect1_dropShadow_3_543"/>
<feBlend mode="normal" in="SourceGraphic" in2="effect1_dropShadow_3_543" result="shape"/>
</filter>
<filter id="filter8_d_3_543" x="193.612" y="-37.8005" width="42.9948" height="89.6306" filterUnits="userSpaceOnUse" color-interpolation-filters="sRGB">
<feFlood flood-opacity="0" result="BackgroundImageFix"/>
<feColorMatrix in="SourceAlpha" type="matrix" values="0 0 0 0 0 0 0 0 0 0 0 0 0 0 0 0 0 0 127 0" result="hardAlpha"/>
<feOffset dx="-8" dy="7"/>
<feGaussianBlur stdDeviation="6"/>
<feComposite in2="hardAlpha" operator="out"/>
<feColorMatrix type="matrix" values="0 0 0 0 0 0 0 0 0 0 0 0 0 0 0 0 0 0 0.06 0"/>
<feBlend mode="normal" in2="BackgroundImageFix" result="effect1_dropShadow_3_543"/>
<feBlend mode="normal" in="SourceGraphic" in2="effect1_dropShadow_3_543" result="shape"/>
</filter>
<filter id="filter9_d_3_543" x="202.179" y="26.868" width="25.891" height="31.848" filterUnits="userSpaceOnUse" color-interpolation-filters="sRGB">
<feFlood flood-opacity="0" result="BackgroundImageFix"/>
<feColorMatrix in="SourceAlpha" type="matrix" values="0 0 0 0 0 0 0 0 0 0 0 0 0 0 0 0 0 0 127 0" result="hardAlpha"/>
<feOffset dx="-8" dy="7"/>
<feGaussianBlur stdDeviation="6"/>
<feComposite in2="hardAlpha" operator="out"/>
<feColorMatrix type="matrix" values="0 0 0 0 0 0 0 0 0 0 0 0 0 0 0 0 0 0 0.06 0"/>
<feBlend mode="normal" in2="BackgroundImageFix" result="effect1_dropShadow_3_543"/>
<feBlend mode="normal" in="SourceGraphic" in2="effect1_dropShadow_3_543" result="shape"/>
</filter>
<filter id="filter10_d_3_543" x="34.847" y="48.3349" width="42.9948" height="65.6251" filterUnits="userSpaceOnUse" color-interpolation-filters="sRGB">
<feFlood flood-opacity="0" result="BackgroundImageFix"/>
<feColorMatrix in="SourceAlpha" type="matrix" values="0 0 0 0 0 0 0 0 0 0 0 0 0 0 0 0 0 0 127 0" result="hardAlpha"/>
<feOffset dx="-8" dy="7"/>
<feGaussianBlur stdDeviation="6"/>
<feComposite in2="hardAlpha" operator="out"/>
<feColorMatrix type="matrix" values="0 0 0 0 0 0 0 0 0 0 0 0 0 0 0 0 0 0 0.06 0"/>
<feBlend mode="normal" in2="BackgroundImageFix" result="effect1_dropShadow_3_543"/>
<feBlend mode="normal" in="SourceGraphic" in2="effect1_dropShadow_3_543" result="shape"/>
</filter>
<filter id="filter11_d_3_543" x="43.4225" y="89.0367" width="25.8841" height="48.0056" filterUnits="userSpaceOnUse" color-interpolation-filters="sRGB">
<feFlood flood-opacity="0" result="BackgroundImageFix"/>
<feColorMatrix in="SourceAlpha" type="matrix" values="0 0 0 0 0 0 0 0 0 0 0 0 0 0 0 0 0 0 127 0" result="hardAlpha"/>
<feOffset dx="-8" dy="7"/>
<feGaussianBlur stdDeviation="6"/>
<feComposite in2="hardAlpha" operator="out"/>
<feColorMatrix type="matrix" values="0 0 0 0 0 0 0 0 0 0 0 0 0 0 0 0 0 0 0.06 0"/>
<feBlend mode="normal" in2="BackgroundImageFix" result="effect1_dropShadow_3_543"/>
<feBlend mode="normal" in="SourceGraphic" in2="effect1_dropShadow_3_543" result="shape"/>
</filter>
<filter id="filter12_d_3_543" x="43.4215" y="36.7166" width="25.8841" height="36.5798" filterUnits="userSpaceOnUse" color-interpolation-filters="sRGB">
<feFlood flood-opacity="0" result="BackgroundImageFix"/>
<feColorMatrix in="SourceAlpha" type="matrix" values="0 0 0 0 0 0 0 0 0 0 0 0 0 0 0 0 0 0 127 0" result="hardAlpha"/>
<feOffset dx="-8" dy="7"/>
<feGaussianBlur stdDeviation="6"/>
<feComposite in2="hardAlpha" operator="out"/>
<feColorMatrix type="matrix" values="0 0 0 0 0 0 0 0 0 0 0 0 0 0 0 0 0 0 0.06 0"/>
<feBlend mode="normal" in2="BackgroundImageFix" result="effect1_dropShadow_3_543"/>
<feBlend mode="normal" in="SourceGraphic" in2="effect1_dropShadow_3_543" result="shape"/>
</filter>
<filter id="filter13_d_3_543" x="8.3929" y="18.251" width="42.9948" height="57.4309" filterUnits="userSpaceOnUse" color-interpolation-filters="sRGB">
<feFlood flood-opacity="0" result="BackgroundImageFix"/>
<feColorMatrix in="SourceAlpha" type="matrix" values="0 0 0 0 0 0 0 0 0 0 0 0 0 0 0 0 0 0 127 0" result="hardAlpha"/>
<feOffset dx="-8" dy="7"/>
<feGaussianBlur stdDeviation="6"/>
<feComposite in2="hardAlpha" operator="out"/>
<feColorMatrix type="matrix" values="0 0 0 0 0 0 0 0 0 0 0 0 0 0 0 0 0 0 0.06 0"/>
<feBlend mode="normal" in2="BackgroundImageFix" result="effect1_dropShadow_3_543"/>
<feBlend mode="normal" in="SourceGraphic" in2="effect1_dropShadow_3_543" result="shape"/>
</filter>
<filter id="filter14_d_3_543" x="16.929" y="50.72" width="25.9226" height="48.0056" filterUnits="userSpaceOnUse" color-interpolation-filters="sRGB">
<feFlood flood-opacity="0" result="BackgroundImageFix"/>
<feColorMatrix in="SourceAlpha" type="matrix" values="0 0 0 0 0 0 0 0 0 0 0 0 0 0 0 0 0 0 127 0" result="hardAlpha"/>
<feOffset dx="-8" dy="7"/>
<feGaussianBlur stdDeviation="6"/>
<feComposite in2="hardAlpha" operator="out"/>
<feColorMatrix type="matrix" values="0 0 0 0 0 0 0 0 0 0 0 0 0 0 0 0 0 0 0.06 0"/>
<feBlend mode="normal" in2="BackgroundImageFix" result="effect1_dropShadow_3_543"/>
<feBlend mode="normal" in="SourceGraphic" in2="effect1_dropShadow_3_543" result="shape"/>
</filter>
<filter id="filter15_d_3_543" x="16.929" y="-13.1796" width="25.9226" height="56.3536" filterUnits="userSpaceOnUse" color-interpolation-filters="sRGB">
<feFlood flood-opacity="0" result="BackgroundImageFix"/>
<feColorMatrix in="SourceAlpha" type="matrix" values="0 0 0 0 0 0 0 0 0 0 0 0 0 0 0 0 0 0 127 0" result="hardAlpha"/>
<feOffset dx="-8" dy="7"/>
<feGaussianBlur stdDeviation="6"/>
<feComposite in2="hardAlpha" operator="out"/>
<feColorMatrix type="matrix" values="0 0 0 0 0 0 0 0 0 0 0 0 0 0 0 0 0 0 0.06 0"/>
<feBlend mode="normal" in2="BackgroundImageFix" result="effect1_dropShadow_3_543"/>
<feBlend mode="normal" in="SourceGraphic" in2="effect1_dropShadow_3_543" result="shape"/>
</filter>
<clipPath id="clip0_3_543">
<rect width="307" height="119" fill="white" transform="translate(307 119) rotate(180)"/>
</clipPath>
</defs>
</svg>
