<svg width="15" height="15" viewBox="0 0 15 15" fill="none" xmlns="http://www.w3.org/2000/svg">
<g clip-path="url(#clip0_3_2953)">
<path d="M12.1574 7.90125V10.9198C12.1574 11.4044 11.763 11.7988 11.2784 11.7988H3.71883C3.2342 11.7988 2.83981 11.4044 2.83981 10.9198V7.90125C3.25327 8.08868 6.27745 9.45966 6.75467 9.67599C7.22846 9.89076 7.76906 9.89076 8.24256 9.67599C8.65611 9.48849 11.6413 8.13518 12.1574 7.90125Z" fill="#A0C0D9"/>
<path d="M14.9956 5.0034C14.9777 4.66178 14.7783 4.364 14.4647 4.21767L7.8889 1.14896C7.64087 1.03322 7.35639 1.03316 7.10842 1.14896L0.532533 4.21767C-0.182373 4.55126 -0.175722 5.56905 0.541763 5.89432C5.97656 8.35812 6.81319 8.73742 7.11771 8.87548C7.36011 8.98524 7.637 8.9853 7.87953 8.87548C11.5132 7.22814 10.4889 7.69247 14.1206 6.04615V13.4982C14.1206 13.741 14.3173 13.9378 14.5601 13.9378C14.8028 13.9378 14.9996 13.741 14.9996 13.4982C14.9996 4.43421 15.0018 5.05189 14.9956 5.0034Z" fill="#A0C0D9"/>
</g>
<defs>
<clipPath id="clip0_3_2953">
<rect width="15" height="15" fill="white"/>
</clipPath>
</defs>
</svg>
